<svg width="1257" height="227" viewBox="0 0 1257 227" fill="none" xmlns="http://www.w3.org/2000/svg">
<path d="M43.52 61.77C49.1867 61.77 53.4933 62.45 56.44 63.81C59.3867 65.0567 61.9933 66.4733 64.26 68.06C65.62 68.8533 66.6967 69.4767 67.49 69.93C68.3967 70.27 69.2467 70.44 70.04 70.44C71.1733 70.44 71.9667 69.8167 72.42 68.57C72.9867 67.3233 73.44 65.4533 73.78 62.96H77.69C77.5767 64.8867 77.4067 67.21 77.18 69.93C77.0667 72.5367 76.9533 76.05 76.84 80.47C76.84 84.7767 76.84 90.5 76.84 97.64H72.93C72.59 92.2 71.4 86.9867 69.36 82C67.32 77.0133 64.3167 72.9333 60.35 69.76C56.4967 66.5867 51.3967 65 45.05 65C39.0433 65 34.0567 66.8133 30.09 70.44C26.2367 74.0667 24.31 78.8267 24.31 84.72C24.31 89.82 25.6133 94.1267 28.22 97.64C30.8267 101.04 34.2833 104.157 38.59 106.99C43.01 109.71 47.77 112.657 52.87 115.83C58.7633 119.457 63.9767 123.083 68.51 126.71C73.1567 130.223 76.7833 134.133 79.39 138.44C82.11 142.747 83.47 147.96 83.47 154.08C83.47 161.333 81.8267 167.34 78.54 172.1C75.2533 176.86 70.89 180.43 65.45 182.81C60.01 185.19 54.0033 186.38 47.43 186.38C41.4233 186.38 36.6633 185.7 33.15 184.34C29.6367 182.98 26.6333 181.563 24.14 180.09C21.6467 178.503 19.72 177.71 18.36 177.71C17.2267 177.71 16.3767 178.333 15.81 179.58C15.3567 180.827 14.96 182.697 14.62 185.19H10.71C10.9367 182.81 11.05 180.033 11.05 176.86C11.1633 173.573 11.22 169.323 11.22 164.11C11.3333 158.897 11.39 152.323 11.39 144.39H15.3C15.7533 151.19 17 157.537 19.04 163.43C21.1933 169.323 24.4233 174.083 28.73 177.71C33.15 181.223 38.9867 182.98 46.24 182.98C49.98 182.98 53.4933 182.243 56.78 180.77C60.18 179.183 62.9567 176.747 65.11 173.46C67.2633 170.06 68.34 165.697 68.34 160.37C68.34 155.723 67.2067 151.7 64.94 148.3C62.7867 144.787 59.7267 141.557 55.76 138.61C51.7933 135.55 47.1467 132.433 41.82 129.26C36.4933 125.973 31.5067 122.63 26.86 119.23C22.2133 115.83 18.4733 111.92 15.64 107.5C12.92 102.967 11.56 97.5267 11.56 91.18C11.56 84.4933 13.0333 78.9967 15.98 74.69C19.04 70.27 23.0067 67.04 27.88 65C32.7533 62.8467 37.9667 61.77 43.52 61.77ZM173.917 94.58V165.64C173.917 170.74 174.823 174.537 176.637 177.03C178.563 179.41 181.963 180.6 186.837 180.6V184.17C183.323 183.83 179.81 183.66 176.297 183.66C173.01 183.66 169.837 183.83 166.777 184.17C163.83 184.51 161.11 185.133 158.617 186.04V165.98C155.783 173.347 151.76 178.617 146.547 181.79C141.447 184.85 136.177 186.38 130.737 186.38C126.77 186.38 123.313 185.813 120.367 184.68C117.42 183.547 114.983 181.96 113.057 179.92C110.903 177.653 109.43 174.707 108.637 171.08C107.843 167.453 107.447 162.977 107.447 157.65V114.98C107.447 109.88 106.54 106.14 104.727 103.76C102.913 101.267 99.5133 100.02 94.5266 100.02V96.45C98.1533 96.79 101.667 96.96 105.067 96.96C108.353 96.96 111.47 96.79 114.417 96.45C117.477 95.9967 120.253 95.3733 122.747 94.58V161.39C122.747 164.903 122.973 168.133 123.427 171.08C123.88 174.027 125.013 176.407 126.827 178.22C128.64 180.033 131.587 180.94 135.667 180.94C140.087 180.94 143.997 179.58 147.397 176.86C150.91 174.14 153.63 170.457 155.557 165.81C157.597 161.163 158.617 155.95 158.617 150.17V114.98C158.617 109.88 157.71 106.14 155.897 103.76C154.083 101.267 150.683 100.02 145.697 100.02V96.45C149.323 96.79 152.837 96.96 156.237 96.96C159.523 96.96 162.64 96.79 165.587 96.45C168.647 95.9967 171.423 95.3733 173.917 94.58ZM252.636 94.07C256.943 94.07 260.513 94.6367 263.346 95.77C266.293 96.9033 268.729 98.49 270.656 100.53C272.809 102.797 274.339 105.63 275.246 109.03C276.153 112.43 276.606 117.02 276.606 122.8V168.19C276.606 172.95 277.569 176.18 279.496 177.88C281.536 179.58 284.879 180.43 289.526 180.43V184C287.599 183.887 284.653 183.773 280.686 183.66C276.719 183.433 272.866 183.32 269.126 183.32C265.386 183.32 261.703 183.433 258.076 183.66C254.563 183.773 251.899 183.887 250.086 184V180.43C254.166 180.43 257.056 179.58 258.756 177.88C260.456 176.18 261.306 172.95 261.306 168.19V119.06C261.306 115.547 261.023 112.317 260.456 109.37C259.889 106.423 258.586 104.043 256.546 102.23C254.619 100.417 251.616 99.51 247.536 99.51C242.776 99.51 238.583 100.87 234.956 103.59C231.443 106.31 228.666 110.05 226.626 114.81C224.699 119.457 223.736 124.67 223.736 130.45V168.19C223.736 172.95 224.586 176.18 226.286 177.88C227.986 179.58 230.876 180.43 234.956 180.43V184C233.143 183.887 230.423 183.773 226.796 183.66C223.283 183.433 219.656 183.32 215.916 183.32C212.176 183.32 208.323 183.433 204.356 183.66C200.389 183.773 197.443 183.887 195.516 184V180.43C200.163 180.43 203.449 179.58 205.376 177.88C207.416 176.18 208.436 172.95 208.436 168.19V114.98C208.436 109.88 207.529 106.14 205.716 103.76C203.903 101.267 200.503 100.02 195.516 100.02V96.45C199.143 96.79 202.656 96.96 206.056 96.96C209.343 96.96 212.459 96.79 215.406 96.45C218.466 95.9967 221.243 95.3733 223.736 94.58V114.64C226.683 106.933 230.763 101.607 235.976 98.66C241.303 95.6 246.856 94.07 252.636 94.07ZM374.301 50.72V165.47C374.301 170.57 375.208 174.367 377.021 176.86C378.948 179.24 382.348 180.43 387.221 180.43V184C383.708 183.66 380.195 183.49 376.681 183.49C373.395 183.49 370.221 183.66 367.161 184C364.215 184.34 361.495 184.963 359.001 185.87V71.12C359.001 66.02 358.095 62.28 356.281 59.9C354.468 57.4067 351.068 56.16 346.081 56.16V52.59C349.708 52.93 353.221 53.1 356.621 53.1C359.908 53.1 363.025 52.93 365.971 52.59C369.031 52.1367 371.808 51.5133 374.301 50.72ZM338.601 94.07C343.588 94.07 348.235 95.26 352.541 97.64C356.961 100.02 359.908 104.1 361.381 109.88L359.171 111.58C357.585 106.82 355.091 103.363 351.691 101.21C348.405 99.0567 344.495 97.98 339.961 97.98C333.275 97.98 327.665 101.437 323.131 108.35C318.711 115.263 316.558 125.917 316.671 140.31C316.671 149.49 317.521 157.14 319.221 163.26C321.035 169.267 323.641 173.8 327.041 176.86C330.555 179.807 334.805 181.28 339.791 181.28C344.551 181.28 348.858 179.24 352.711 175.16C356.565 171.08 358.888 165.073 359.681 157.14L361.721 159.52C360.815 168.133 358.038 174.763 353.391 179.41C348.858 184.057 342.681 186.38 334.861 186.38C327.835 186.38 321.658 184.68 316.331 181.28C311.118 177.88 307.095 172.78 304.261 165.98C301.541 159.18 300.181 150.623 300.181 140.31C300.181 129.997 301.938 121.44 305.451 114.64C309.078 107.727 313.781 102.57 319.561 99.17C325.455 95.77 331.801 94.07 338.601 94.07ZM419.871 185.19C415.224 185.19 411.201 184.34 407.801 182.64C404.401 180.827 401.794 178.333 399.981 175.16C398.281 171.987 397.431 168.303 397.431 164.11C397.431 159.123 398.564 155.043 400.831 151.87C403.211 148.697 406.214 146.147 409.841 144.22C413.467 142.293 417.264 140.707 421.231 139.46C425.311 138.1 429.164 136.853 432.791 135.72C436.417 134.473 439.364 133.057 441.631 131.47C444.011 129.883 445.201 127.787 445.201 125.18V114.64C445.201 109.88 444.464 106.253 442.991 103.76C441.631 101.267 439.761 99.6233 437.381 98.83C435.001 97.9233 432.337 97.47 429.391 97.47C426.557 97.47 423.497 97.8667 420.211 98.66C417.037 99.4533 414.487 101.097 412.561 103.59C414.714 104.043 416.584 105.177 418.171 106.99C419.757 108.803 420.551 111.127 420.551 113.96C420.551 116.793 419.644 119.06 417.831 120.76C416.017 122.347 413.694 123.14 410.861 123.14C407.574 123.14 405.137 122.12 403.551 120.08C402.077 117.927 401.341 115.547 401.341 112.94C401.341 109.993 402.077 107.613 403.551 105.8C405.024 103.987 406.894 102.287 409.161 100.7C411.767 98.8867 415.111 97.3567 419.191 96.11C423.384 94.75 428.087 94.07 433.301 94.07C437.947 94.07 441.914 94.6367 445.201 95.77C448.487 96.79 451.207 98.32 453.361 100.36C456.307 103.08 458.234 106.423 459.141 110.39C460.047 114.243 460.501 118.89 460.501 124.33V171.59C460.501 174.423 460.897 176.463 461.691 177.71C462.597 178.957 463.957 179.58 465.771 179.58C467.017 179.58 468.207 179.297 469.341 178.73C470.474 178.163 471.834 177.257 473.421 176.01L475.291 178.9C472.911 180.713 470.644 182.243 468.491 183.49C466.337 184.623 463.447 185.19 459.821 185.19C456.534 185.19 453.814 184.623 451.661 183.49C449.507 182.357 447.864 180.713 446.731 178.56C445.711 176.293 445.201 173.46 445.201 170.06C442.141 175.16 438.457 178.957 434.151 181.45C429.957 183.943 425.197 185.19 419.871 185.19ZM425.991 178.39C429.731 178.39 433.187 177.313 436.361 175.16C439.647 173.007 442.594 169.777 445.201 165.47V132.15C443.841 134.077 441.857 135.72 439.251 137.08C436.644 138.327 433.811 139.63 430.751 140.99C427.691 142.237 424.744 143.767 421.911 145.58C419.191 147.28 416.924 149.547 415.111 152.38C413.297 155.213 412.391 158.897 412.391 163.43C412.391 167.963 413.581 171.59 415.961 174.31C418.454 177.03 421.797 178.39 425.991 178.39ZM558.453 96.45V99.85C556.299 100.077 554.316 101.04 552.503 102.74C550.689 104.44 548.989 107.443 547.403 111.75L519.523 184.85H516.633L485.353 109.54C483.199 105.12 481.046 102.457 478.893 101.55C476.853 100.53 475.153 100.02 473.793 100.02V96.45C476.286 96.79 478.893 97.0733 481.613 97.3C484.333 97.4133 487.279 97.47 490.453 97.47C493.966 97.47 497.649 97.3567 501.503 97.13C505.469 96.9033 509.153 96.6767 512.553 96.45V100.02C509.719 100.02 507.169 100.247 504.903 100.7C502.749 101.04 501.389 102.23 500.823 104.27C500.256 106.197 500.936 109.54 502.863 114.3L523.773 166.15L522.753 166.49L542.133 115.83C543.606 112.09 544.173 109.143 543.833 106.99C543.606 104.723 542.473 103.023 540.433 101.89C538.393 100.757 535.333 100.077 531.253 99.85V96.45C533.293 96.5633 535.049 96.6767 536.523 96.79C537.996 96.79 539.413 96.8467 540.773 96.96C542.246 96.96 543.833 96.96 545.533 96.96C548.139 96.96 550.463 96.9033 552.503 96.79C554.656 96.6767 556.639 96.5633 558.453 96.45ZM519.523 184.85L513.743 199.64C512.609 202.473 511.419 204.853 510.173 206.78C509.039 208.707 507.793 210.293 506.433 211.54C504.619 213.24 502.466 214.373 499.973 214.94C497.479 215.62 495.213 215.96 493.173 215.96C491.019 215.96 489.036 215.563 487.223 214.77C485.523 213.977 484.163 212.787 483.143 211.2C482.123 209.727 481.613 207.913 481.613 205.76C481.613 203.04 482.406 200.83 483.993 199.13C485.579 197.543 487.789 196.75 490.623 196.75C493.003 196.75 495.043 197.43 496.743 198.79C498.443 200.15 499.293 202.133 499.293 204.74C499.293 206.667 498.839 208.253 497.933 209.5C497.026 210.747 495.949 211.71 494.703 212.39C494.929 212.503 495.099 212.56 495.213 212.56C495.439 212.56 495.609 212.56 495.723 212.56C498.783 212.56 501.503 211.483 503.883 209.33C506.263 207.29 508.359 203.947 510.173 199.3L516.293 183.49L519.523 184.85Z" fill="#FDFBEE"/>
<path d="M651.49 63.64V67.04C647.637 67.1533 644.69 67.6067 642.65 68.4C640.723 69.08 639.42 70.44 638.74 72.48C638.06 74.4067 637.72 77.4667 637.72 81.66V165.98C637.72 170.06 638.06 173.12 638.74 175.16C639.42 177.2 640.723 178.56 642.65 179.24C644.69 179.807 647.637 180.09 651.49 180.09H663.9C669.227 180.09 673.533 179.523 676.82 178.39C680.22 177.257 682.883 175.5 684.81 173.12C686.85 170.627 688.38 167.34 689.4 163.26C690.42 159.18 691.213 154.193 691.78 148.3H695.69C695.35 151.813 695.18 156.46 695.18 162.24C695.18 164.393 695.237 167.51 695.35 171.59C695.577 175.557 695.917 179.693 696.37 184C690.59 183.773 684.073 183.66 676.82 183.66C669.567 183.547 663.107 183.49 657.44 183.49C654.947 183.49 651.717 183.49 647.75 183.49C643.897 183.49 639.703 183.547 635.17 183.66C630.637 183.66 626.047 183.717 621.4 183.83C616.753 183.83 612.333 183.887 608.14 184V180.6C611.993 180.373 614.883 179.92 616.81 179.24C618.85 178.56 620.21 177.2 620.89 175.16C621.57 173.12 621.91 170.06 621.91 165.98V81.66C621.91 77.4667 621.57 74.4067 620.89 72.48C620.21 70.44 618.85 69.08 616.81 68.4C614.883 67.6067 611.993 67.1533 608.14 67.04V63.64C610.52 63.7533 613.637 63.8667 617.49 63.98C621.343 64.0933 625.48 64.15 629.9 64.15C633.867 64.15 637.777 64.0933 641.63 63.98C645.597 63.8667 648.883 63.7533 651.49 63.64ZM730.011 185.19C725.365 185.19 721.341 184.34 717.941 182.64C714.541 180.827 711.935 178.333 710.121 175.16C708.421 171.987 707.571 168.303 707.571 164.11C707.571 159.123 708.705 155.043 710.971 151.87C713.351 148.697 716.355 146.147 719.981 144.22C723.608 142.293 727.405 140.707 731.371 139.46C735.451 138.1 739.305 136.853 742.931 135.72C746.558 134.473 749.505 133.057 751.771 131.47C754.151 129.883 755.341 127.787 755.341 125.18V114.64C755.341 109.88 754.605 106.253 753.131 103.76C751.771 101.267 749.901 99.6233 747.521 98.83C745.141 97.9233 742.478 97.47 739.531 97.47C736.698 97.47 733.638 97.8667 730.351 98.66C727.178 99.4533 724.628 101.097 722.701 103.59C724.855 104.043 726.725 105.177 728.311 106.99C729.898 108.803 730.691 111.127 730.691 113.96C730.691 116.793 729.785 119.06 727.971 120.76C726.158 122.347 723.835 123.14 721.001 123.14C717.715 123.14 715.278 122.12 713.691 120.08C712.218 117.927 711.481 115.547 711.481 112.94C711.481 109.993 712.218 107.613 713.691 105.8C715.165 103.987 717.035 102.287 719.301 100.7C721.908 98.8867 725.251 97.3567 729.331 96.11C733.525 94.75 738.228 94.07 743.441 94.07C748.088 94.07 752.055 94.6367 755.341 95.77C758.628 96.79 761.348 98.32 763.501 100.36C766.448 103.08 768.375 106.423 769.281 110.39C770.188 114.243 770.641 118.89 770.641 124.33V171.59C770.641 174.423 771.038 176.463 771.831 177.71C772.738 178.957 774.098 179.58 775.911 179.58C777.158 179.58 778.348 179.297 779.481 178.73C780.615 178.163 781.975 177.257 783.561 176.01L785.431 178.9C783.051 180.713 780.785 182.243 778.631 183.49C776.478 184.623 773.588 185.19 769.961 185.19C766.675 185.19 763.955 184.623 761.801 183.49C759.648 182.357 758.005 180.713 756.871 178.56C755.851 176.293 755.341 173.46 755.341 170.06C752.281 175.16 748.598 178.957 744.291 181.45C740.098 183.943 735.338 185.19 730.011 185.19ZM736.131 178.39C739.871 178.39 743.328 177.313 746.501 175.16C749.788 173.007 752.735 169.777 755.341 165.47V132.15C753.981 134.077 751.998 135.72 749.391 137.08C746.785 138.327 743.951 139.63 740.891 140.99C737.831 142.237 734.885 143.767 732.051 145.58C729.331 147.28 727.065 149.547 725.251 152.38C723.438 155.213 722.531 158.897 722.531 163.43C722.531 167.963 723.721 171.59 726.101 174.31C728.595 177.03 731.938 178.39 736.131 178.39ZM820.969 94.07C825.503 94.07 829.356 94.8067 832.529 96.28C835.703 97.7533 838.026 99.1133 839.499 100.36C843.239 103.42 845.506 101.38 846.299 94.24H850.209C849.983 97.4133 849.813 101.21 849.699 105.63C849.586 109.937 849.529 115.773 849.529 123.14H845.619C844.939 118.947 843.749 114.867 842.049 110.9C840.463 106.933 838.083 103.703 834.909 101.21C831.736 98.6033 827.599 97.3 822.499 97.3C818.533 97.3 815.189 98.4333 812.469 100.7C809.863 102.853 808.559 106.083 808.559 110.39C808.559 113.79 809.579 116.737 811.619 119.23C813.659 121.61 816.323 123.877 819.609 126.03C822.896 128.07 826.466 130.337 830.319 132.83C834.626 135.55 838.536 138.327 842.049 141.16C845.563 143.993 848.339 147.11 850.379 150.51C852.533 153.91 853.609 157.933 853.609 162.58C853.609 167.793 852.249 172.157 849.529 175.67C846.809 179.183 843.239 181.847 838.819 183.66C834.513 185.473 829.753 186.38 824.539 186.38C822.046 186.38 819.666 186.153 817.399 185.7C815.246 185.36 813.149 184.793 811.109 184C809.976 183.433 808.786 182.753 807.539 181.96C806.406 181.167 805.273 180.317 804.139 179.41C803.006 178.503 801.986 178.56 801.079 179.58C800.173 180.487 799.493 182.357 799.039 185.19H795.129C795.356 181.563 795.526 177.143 795.639 171.93C795.753 166.717 795.809 159.803 795.809 151.19H799.719C800.513 157.537 801.646 163.09 803.119 167.85C804.593 172.61 806.916 176.35 810.089 179.07C813.263 181.677 817.683 182.98 823.349 182.98C825.616 182.98 827.883 182.47 830.149 181.45C832.529 180.43 834.513 178.73 836.099 176.35C837.686 173.97 838.479 170.797 838.479 166.83C838.479 161.843 836.666 157.763 833.039 154.59C829.413 151.417 824.823 148.073 819.269 144.56C815.189 141.953 811.336 139.347 807.709 136.74C804.196 134.133 801.306 131.187 799.039 127.9C796.886 124.613 795.809 120.647 795.809 116C795.809 110.9 796.943 106.763 799.209 103.59C801.589 100.303 804.706 97.9233 808.559 96.45C812.413 94.8633 816.549 94.07 820.969 94.07ZM893.265 50.89V114.47C896.211 106.763 900.291 101.437 905.505 98.49C910.831 95.5433 916.385 94.07 922.165 94.07C926.471 94.07 930.041 94.6367 932.875 95.77C935.821 96.9033 938.258 98.49 940.185 100.53C942.338 102.797 943.868 105.63 944.775 109.03C945.681 112.43 946.135 117.02 946.135 122.8V168.19C946.135 172.95 947.098 176.18 949.025 177.88C951.065 179.58 954.408 180.43 959.055 180.43V184C957.128 183.887 954.181 183.773 950.215 183.66C946.248 183.433 942.395 183.32 938.655 183.32C934.915 183.32 931.231 183.433 927.605 183.66C924.091 183.773 921.428 183.887 919.615 184V180.43C923.695 180.43 926.585 179.58 928.285 177.88C929.985 176.18 930.835 172.95 930.835 168.19V119.06C930.835 115.547 930.551 112.317 929.985 109.37C929.418 106.423 928.115 104.043 926.075 102.23C924.148 100.417 921.145 99.51 917.065 99.51C912.418 99.51 908.281 100.813 904.655 103.42C901.141 106.027 898.365 109.653 896.325 114.3C894.285 118.947 893.265 124.273 893.265 130.28V168.19C893.265 172.95 894.115 176.18 895.815 177.88C897.515 179.58 900.405 180.43 904.485 180.43V184C902.671 183.887 899.951 183.773 896.325 183.66C892.811 183.433 889.185 183.32 885.445 183.32C881.705 183.32 877.851 183.433 873.885 183.66C869.918 183.773 866.971 183.887 865.045 184V180.43C869.691 180.43 872.978 179.58 874.905 177.88C876.945 176.18 877.965 172.95 877.965 168.19V71.29C877.965 66.19 877.058 62.45 875.245 60.07C873.431 57.5767 870.031 56.33 865.045 56.33V52.76C868.671 53.1 872.185 53.27 875.585 53.27C878.871 53.27 881.988 53.1 884.935 52.76C887.995 52.3067 890.771 51.6833 893.265 50.89ZM1066.99 61.26C1074.47 61.26 1080.59 62.3933 1085.35 64.66C1090.22 66.8133 1094.53 69.3633 1098.27 72.31C1100.54 74.01 1102.24 74.2367 1103.37 72.99C1104.62 71.63 1105.47 68.5133 1105.92 63.64H1109.83C1109.6 67.8333 1109.43 72.9333 1109.32 78.94C1109.21 84.9467 1109.15 92.88 1109.15 102.74H1105.24C1104.45 97.8667 1103.71 94.0133 1103.03 91.18C1102.35 88.2333 1101.5 85.74 1100.48 83.7C1099.57 81.66 1098.33 79.62 1096.74 77.58C1093.23 72.9333 1088.81 69.59 1083.48 67.55C1078.15 65.3967 1072.54 64.32 1066.65 64.32C1061.1 64.32 1056.05 65.7367 1051.52 68.57C1047.1 71.29 1043.25 75.2567 1039.96 80.47C1036.79 85.6833 1034.29 91.9733 1032.48 99.34C1030.78 106.707 1029.93 114.98 1029.93 124.16C1029.93 133.68 1030.89 142.123 1032.82 149.49C1034.75 156.743 1037.41 162.863 1040.81 167.85C1044.32 172.837 1048.4 176.633 1053.05 179.24C1057.81 181.733 1062.91 182.98 1068.35 182.98C1073.45 182.98 1078.78 181.96 1084.33 179.92C1089.88 177.88 1094.25 174.593 1097.42 170.06C1099.91 166.773 1101.61 163.203 1102.52 159.35C1103.54 155.497 1104.45 150.113 1105.24 143.2H1109.15C1109.15 153.513 1109.21 161.843 1109.32 168.19C1109.43 174.423 1109.6 179.693 1109.83 184H1105.92C1105.47 179.127 1104.67 176.067 1103.54 174.82C1102.52 173.573 1100.76 173.743 1098.27 175.33C1094.08 178.277 1089.6 180.883 1084.84 183.15C1080.19 185.303 1074.19 186.38 1066.82 186.38C1056.05 186.38 1046.59 183.943 1038.43 179.07C1030.38 174.197 1024.09 167.17 1019.56 157.99C1015.14 148.81 1012.93 137.76 1012.93 124.84C1012.93 112.147 1015.25 101.04 1019.9 91.52C1024.55 82 1030.89 74.5767 1038.94 69.25C1047.1 63.9233 1056.45 61.26 1066.99 61.26ZM1167.54 94.07C1174.79 94.07 1181.31 95.6567 1187.09 98.83C1192.87 102.003 1197.46 106.99 1200.86 113.79C1204.37 120.59 1206.13 129.43 1206.13 140.31C1206.13 151.19 1204.37 160.03 1200.86 166.83C1197.46 173.517 1192.87 178.447 1187.09 181.62C1181.31 184.793 1174.79 186.38 1167.54 186.38C1160.4 186.38 1153.88 184.793 1147.99 181.62C1142.21 178.447 1137.56 173.517 1134.05 166.83C1130.65 160.03 1128.95 151.19 1128.95 140.31C1128.95 129.43 1130.65 120.59 1134.05 113.79C1137.56 106.99 1142.21 102.003 1147.99 98.83C1153.88 95.6567 1160.4 94.07 1167.54 94.07ZM1167.54 97.47C1161.08 97.47 1155.75 100.813 1151.56 107.5C1147.48 114.187 1145.44 125.123 1145.44 140.31C1145.44 155.497 1147.48 166.433 1151.56 173.12C1155.75 179.693 1161.08 182.98 1167.54 182.98C1174 182.98 1179.27 179.693 1183.35 173.12C1187.54 166.433 1189.64 155.497 1189.64 140.31C1189.64 125.123 1187.54 114.187 1183.35 107.5C1179.27 100.813 1174 97.47 1167.54 97.47ZM1235.52 164.62C1238.46 164.62 1241.01 165.697 1243.17 167.85C1245.32 170.003 1246.4 172.553 1246.4 175.5C1246.4 178.447 1245.32 180.997 1243.17 183.15C1241.01 185.303 1238.46 186.38 1235.52 186.38C1232.57 186.38 1230.02 185.303 1227.87 183.15C1225.71 180.997 1224.64 178.447 1224.64 175.5C1224.64 172.553 1225.71 170.003 1227.87 167.85C1230.02 165.697 1232.57 164.62 1235.52 164.62Z" fill="#FDFBEE"/>
</svg>
